<svg id="Layer_1" data-name="Layer 1" xmlns="http://www.w3.org/2000/svg" viewBox="0 0 2158.9 1589.56">
  <defs>
    <style>
      .cls-1 {
        fill: #fff;
      }

      .cls-2 {
        fill: #231f20;
      }
    </style>
  </defs>
  <g>
    <polygon class="cls-1" points="0.88 355.82 449.83 0.61 536.25 52.45 88.29 408.26 0.88 355.82"/>
    <path class="cls-2" d="M227.37-95.09l85.51,51.3L-134.25,311.35l-86.5-51.88L227.37-95.09m-.08-1.21L-222.5,259.58l88.33,53L314.63-43.91,227.29-96.3Z" transform="translate(222.5 96.3)"/>
  </g>
  <g>
    <polygon class="cls-1" points="1968.91 1536.33 2071.92 973.6 2158.34 1025.44 2056.32 1588.76 1968.91 1536.33"/>
    <path class="cls-2" d="M1849.78,878.1l85.51,51.3-101.84,562.26L1747,1439.78,1849.78,878.1m-.73-1.6-103.2,563.78,88.33,53L1936.4,928.89l-87.35-52.39Z" transform="translate(222.5 96.3)"/>
  </g>
  <g>
    <polygon class="cls-1" points="1198.47 1074.19 1646.44 718.38 1733.85 770.81 1284.9 1126.03 1198.47 1074.19"/>
    <path class="cls-2" d="M1424,622.69l86.49,51.88-448.11,354.55-85.51-51.29L1424,622.69m-.08-1.22L975.09,978l87.35,52.39,449.79-355.88-88.33-53Z" transform="translate(222.5 96.3)"/>
  </g>
  <g>
    <polygon class="cls-1" points="772.39 818.6 875.41 255.89 961.83 307.72 859.81 871.04 772.39 818.6"/>
    <path class="cls-2" d="M653.27,160.39l85.51,51.28L636.94,773.94l-86.49-51.89L653.27,160.39m-.73-1.6L549.34,722.56l88.33,53L739.88,211.17l-87.34-52.38Z" transform="translate(222.5 96.3)"/>
  </g>
</svg>
