<svg id="Layer_1" data-name="Layer 1" xmlns="http://www.w3.org/2000/svg" viewBox="0 0 1801.86 901.65">
  <defs>
    <style>
      .cls-1 {
        fill: #231f20;
      }
    </style>
  </defs>
  <path class="cls-1" d="M129.8-132.62l96.37,57.81L-276.77,324.66l-97.48-58.47L129.8-132.62m-.08-1.21L-376,266.3l99.31,59.57L227.93-74.93l-98.21-58.9Z"/>
  <path class="cls-1" d="M1475.21,674.41l97.48,58.47-504,398.81-96.38-57.81,502.94-399.47m-.07-1.22L970.52,1074l98.2,58.91,505.73-400.13-99.31-59.58Z"/>
  <path class="cls-1" d="M608.58,154.57,705,212.37,590.41,844.82l-97.48-58.48L608.58,154.57m-.72-1.6-116,633.88,99.31,59.57L706.06,211.87,607.86,153Z"/>
  <polygon points="1926.65 944.03 1564.6 1163.73 1606.17 751.8 1475.18 673.22 1417.16 1384.54 2051.6 1018.99 1926.65 944.03"/>
  <polygon points="943.74 1057.93 967.12 635.08 623.27 865.69 492.28 787.12 1092.52 401.05 1068.69 1132.88 943.74 1057.93"/>
  <polygon points="581.22 136.98 219.16 356.68 260.74 -55.26 129.75 -133.83 71.73 577.49 706.17 211.93 581.22 136.98"/>
</svg>
