<svg xmlns="http://www.w3.org/2000/svg" viewBox="0 0 100 100">
  <defs>
    <style>
      .cls-1 {
        fill: #191717;
        fill-rule: evenodd;
      }
    </style>
  </defs>
  <g id="GitHub">
    <path class="cls-1" d="M50,1.28A50,50,0,0,0,34.17,98.64c2.49.46,3.41-1.09,3.41-2.41s0-4.33-.07-8.5C23.61,90.75,20.68,81,20.68,81c-2.27-5.78-5.55-7.31-5.55-7.31-4.53-3.1.35-3,.35-3,5,.35,7.65,5.15,7.65,5.15,4.45,7.63,11.69,5.43,14.54,4.15a10.64,10.64,0,0,1,3.17-6.68c-11.09-1.26-22.76-5.54-22.76-24.69a19.29,19.29,0,0,1,5.15-13.4C22.71,34,21,28.87,23.72,22c0,0,4.19-1.35,13.73,5.12a47.42,47.42,0,0,1,25,0C72,20.65,76.19,22,76.19,22c2.73,6.87,1,12,.5,13.22a19.27,19.27,0,0,1,5.13,13.4C81.82,67.81,70.14,72,59,73.27c1.8,1.55,3.39,4.59,3.39,9.25,0,6.68-.06,12.07-.06,13.71,0,1.34.9,2.89,3.44,2.4A50,50,0,0,0,50,1.28Z"/>
  </g>
</svg>
