<svg id="Shapeways" xmlns="http://www.w3.org/2000/svg" viewBox="0 0 100 100">
  <path d="M50,0A50,50,0,1,0,99.91,50,50,50,0,0,0,50,0ZM56.1,60.43a8.86,8.86,0,0,1-1.64,3.29,13.69,13.69,0,0,1-6.41,4.68,30.79,30.79,0,0,1-11,1.64,49.19,49.19,0,0,1-6.58-.43,27.91,27.91,0,0,1-5.29-1.21,13.69,13.69,0,0,1-6.92-4.76,13.31,13.31,0,0,1-2.69-7.36H28.74a6.19,6.19,0,0,0,1,2.16,4.85,4.85,0,0,0,1.56,1.13c1.91,1,6.06.78,6.15.78a16.85,16.85,0,0,0,5.19-.78,2.25,2.25,0,0,0,1.48-2.08,1.86,1.86,0,0,0-.87-1.65A9.92,9.92,0,0,0,39.83,55c-1.73-.17-4.25-.43-7.45-.61C27,54,22.94,53,20.35,51.26s-4-4.51-4-8.4a11.19,11.19,0,0,1,5-9.7c3.2-2.34,8-3.46,13.85-3.46,6.06,0,10.91,1,14.28,3A14,14,0,0,1,56.19,43H43.46a1.46,1.46,0,0,0-.08-.35A3.89,3.89,0,0,0,41,40a17.25,17.25,0,0,0-5.72-.87c-1.12,0-4,.09-5.19.78a2.33,2.33,0,0,0-1.3,2c0,1.22.87,1.56,1.73,1.82a22.22,22.22,0,0,0,3.21.61c1.38.17,3.29.35,5.54.52.6,0,3.55.26,5.37.52a39.9,39.9,0,0,1,4.32,1A11.19,11.19,0,0,1,54.81,50a10.62,10.62,0,0,1,1.9,6.4A18.27,18.27,0,0,1,56.1,60.43Zm23.47,8.49H74.89L71.6,46.75s-.17-4.41-.17-6.06h-.09l-.17,6.06L67.88,68.92H63.2L59,30.82h5.28L66,53.16l.09,6.23h.09l.17-6.32,3-22.25h4l3,22.25.18,6.32h.08l.09-6.23,1.73-22.34h5.28Z"/>
</svg>
