<svg id="Layer_1" data-name="Layer 1" xmlns="http://www.w3.org/2000/svg" viewBox="0 0 32 32">
  <g>
    <polygon points="13.5 15.32 7.28 18.61 13.5 21.53 13.5 24.07 2.88 18.82 13.5 12.9 13.5 15.32"/>
    <path d="M14,24.87l-12.2-6L14,12.05v3.58L8.4,18.58,14,21.21Z"/>
  </g>
  <path d="M2.84,6.91l10.92,5.18-.06,2.54L2.89,9.53,2.84,6.91m-.26-.4.06,3.18L13.94,15,14,11.94,2.58,6.51Z"/>
  <rect x="15.83" y="9.7" width="0.53" height="16.87"/>
  <path d="M18,24.87V21.21l5.6-2.63L18,15.63V12.05l12.2,6.79Z"/>
  <path d="M29.16,6.91l-.05,2.62L18.3,14.63l-.06-2.54L29.16,6.91m.26-.4L18,11.94,18.06,15l11.3-5.33.06-3.18Z"/>
</svg>
